<svg xmlns="http://www.w3.org/2000/svg" width="70" height="70" viewBox="0 0 70 70" style="width: 100%; height: 100%;"><desc>Made with illustrio</desc>
  
<g class="shifted" transform="matrix(1,0,0,1,1.5,1.5)"><g fill="none" fill-rule="evenodd" stroke="none" style="fill-opacity: 0.7;" class="secondary-fill">
    
    
  </g><g fill="none" transform="translate(21 20)" stroke="none" style="fill-opacity: 0.7;" class="secondary-fill">
      <circle cx="18.6" cy="24.7" r="1.3" fill="none" stroke="none" style="fill-opacity: 0.7;" class="secondary-fill"></circle>
      <path d="M13.6,20 C13.4,20 13.2,20.2 13.2,20.4 C13.2,20.9 14.1,20.9 14.1,20.4 C14.1,20.2 13.9,20 13.6,20 L13.6,20 Z" fill="none" stroke="none" style="fill-opacity: 0.7;" class="secondary-fill"></path>
      <path d="M27.3,28.7 L18.5,11.4 L18.5,1.8 L20.3,1.8 C20.8,1.8 21.2,1.4 21.2,0.9 C21.2,0.4 20.8,0 20.3,0 L17.6,0 L10.5,0 L7.9,0 C7.4,0 7,0.4 7,0.9 C7,1.4 7.4,1.8 7.9,1.8 L9.7,1.8 L9.7,11.3 L0.9,28.7 C0.8,29 0.8,29.3 0.9,29.6 C1.1,29.8 1.3,30 1.7,30 L26.5,30 C26.8,30 27.1,29.8 27.3,29.6 C27.4,29.3 27.4,29 27.3,28.7 L27.3,28.7 Z M11.4,11.4 L11.4,4.6 L11.4,1.8 L16.7,1.8 L16.7,11.4 L19,16 L9.4,16 L11.4,11.4 L11.4,11.4 Z M9.4,26.9 C8,26.9 6.8,25.7 6.8,24.3 C6.8,22.9 8,21.7 9.4,21.7 C10.8,21.7 12,22.9 12,24.3 C12,25.8 10.8,26.9 9.4,26.9 L9.4,26.9 Z M13.6,22.6 C12.4,22.6 11.4,21.6 11.4,20.4 C11.4,19.2 12.4,18.2 13.6,18.2 C14.8,18.2 15.8,19.2 15.8,20.4 C15.8,21.7 14.8,22.6 13.6,22.6 L13.6,22.6 Z M18.6,27.8 C16.9,27.8 15.5,26.4 15.5,24.7 C15.5,23 16.9,21.6 18.6,21.6 C20.3,21.6 21.7,23 21.7,24.7 C21.7,26.4 20.4,27.8 18.6,27.8 L18.6,27.8 Z" fill="none" stroke="none" style="fill-opacity: 0.7;" class="secondary-fill"></path>
      <circle cx="9.4" cy="24.3" r=".8" fill="none" stroke="none" style="fill-opacity: 0.7;" class="secondary-fill"></circle>
    </g></g><g class="base"><g fill="none" fill-rule="evenodd" stroke="none" class="main-stroke">
    
    
  </g><g fill="none" transform="translate(21 20)" stroke="none" class="main-stroke">
      <circle cx="18.6" cy="24.7" r="1.3" fill="none" stroke="none" class="main-stroke"></circle>
      <path d="M13.6,20 C13.4,20 13.2,20.2 13.2,20.4 C13.2,20.9 14.1,20.9 14.1,20.4 C14.1,20.2 13.9,20 13.6,20 L13.6,20 Z" fill="none" stroke="none" class="main-stroke"></path>
      <path d="M27.3,28.7 L18.5,11.4 L18.5,1.8 L20.3,1.8 C20.8,1.8 21.2,1.4 21.2,0.9 C21.2,0.4 20.8,0 20.3,0 L17.6,0 L10.5,0 L7.9,0 C7.4,0 7,0.4 7,0.9 C7,1.4 7.4,1.8 7.9,1.8 L9.7,1.8 L9.7,11.3 L0.9,28.7 C0.8,29 0.8,29.3 0.9,29.6 C1.1,29.8 1.3,30 1.7,30 L26.5,30 C26.8,30 27.1,29.8 27.3,29.6 C27.4,29.3 27.4,29 27.3,28.7 L27.3,28.7 Z M11.4,11.4 L11.4,4.6 L11.4,1.8 L16.7,1.8 L16.7,11.4 L19,16 L9.4,16 L11.4,11.4 L11.4,11.4 Z M9.4,26.9 C8,26.9 6.8,25.7 6.8,24.3 C6.8,22.9 8,21.7 9.4,21.7 C10.8,21.7 12,22.9 12,24.3 C12,25.8 10.8,26.9 9.4,26.9 L9.4,26.9 Z M13.6,22.6 C12.4,22.6 11.4,21.6 11.4,20.4 C11.4,19.2 12.4,18.2 13.6,18.2 C14.8,18.2 15.8,19.2 15.8,20.4 C15.8,21.7 14.8,22.6 13.6,22.6 L13.6,22.6 Z M18.6,27.8 C16.9,27.8 15.5,26.4 15.5,24.7 C15.5,23 16.9,21.6 18.6,21.6 C20.3,21.6 21.7,23 21.7,24.7 C21.7,26.4 20.4,27.8 18.6,27.8 L18.6,27.8 Z" fill="none" stroke="none" class="main-stroke"></path>
      <circle cx="9.4" cy="24.3" r=".8" fill="none" stroke="none" class="main-stroke"></circle>
    </g></g><style>
          .main-fill {fill: #F5842F;}
          .main-stroke {stroke: #F5842F;}
          .secondary-fill {fill: ;}
          .secondary-stroke {stroke: ;}

          .main-fill--darken {fill: #ce5e0a;}
          .main-stroke--darken {stroke: #ce5e0a;}
          .secondary-fill--darken {fill: #000000;}
          .secondary-stroke--darken {stroke: #000000;}

          .main-fill--darkener {fill: #9d4808;}
          .main-stroke--darkener {stroke: #9d4808;}
          .secondary-fill--darkener {fill: #000000;}
          .secondary-stroke--darkener {stroke: #000000;}
        </style></svg>