<svg xmlns="http://www.w3.org/2000/svg" width="70" height="70" viewBox="0 0 70 70" style="width: 100%; height: 100%;"><desc>Made with illustrio</desc>
  
<g class="base"><g fill="none" fill-rule="evenodd" stroke="none" class="main-stroke">
    
    
    <path fill="none" d="M16.3805147,0.136265294 C15.9562355,0.182889423 15.6378788,0.545927838 15.6470588,0.972662353 L15.6470588,5.91383882 C15.6428607,6.21083172 15.7988999,6.4870787 16.0554264,6.63680026 C16.3119529,6.78652183 16.6292235,6.78652183 16.8857501,6.63680026 C17.1422766,6.4870787 17.2983158,6.21083172 17.2941176,5.91383882 L17.2941176,0.972662353 C17.2976052,0.749785207 17.2106054,0.535011991 17.0529882,0.377394756 C16.895371,0.219777522 16.6805977,0.132777742 16.4577206,0.136265294 C16.4319994,0.13505841 16.4062359,0.13505841 16.3805147,0.136265294 L16.3805147,0.136265294 Z M8.17095588,3.43038294 C7.88347167,3.45338519 7.62896199,3.62508505 7.49998426,3.88304051 C7.37100652,4.14099598 7.38635245,4.44762363 7.54044118,4.69141235 L9.59926471,7.99839765 C9.74332498,8.27242336 10.028884,8.44251751 10.3384463,8.43869354 C10.6480087,8.43486958 10.9292789,8.25777349 11.0665263,7.98027283 C11.2037737,7.70277218 11.1738125,7.37174602 10.9889706,7.12339765 L8.93014706,3.82928 C8.77173202,3.56465523 8.47874591,3.41071337 8.17095588,3.43038294 L8.17095588,3.43038294 Z M24.6672794,3.43038294 C24.3961306,3.44698442 24.1506077,3.59622385 24.0110294,3.82928 L21.9522059,7.12339765 C21.767364,7.37174602 21.7374028,7.70277218 21.8746502,7.98027283 C22.0118975,8.25777349 22.2931678,8.43486958 22.6027301,8.43869354 C22.9122925,8.44251751 23.1978515,8.27242336 23.3419118,7.99839765 L25.4007353,4.69141235 C25.5636718,4.43211793 25.5692901,4.10383079 25.4153215,3.83911286 C25.2613529,3.57439493 24.9732235,3.4169611 24.6672794,3.43038294 L24.6672794,3.43038294 Z M1.42830882,8.78332412 C1.0619859,8.80513088 0.754281893,9.06666666 0.673727193,9.42468755 C0.593172492,9.78270844 0.759202606,10.1508344 1.08088235,10.3274418 L5.36580882,12.79803 C5.76022541,13.0254414 6.26431657,12.8900569 6.49172794,12.4956403 C6.71913931,12.1012237 6.58375483,11.5971325 6.18933824,11.3697212 L1.90441176,8.89913294 C1.76113465,8.81312333 1.59508353,8.77273251 1.42830882,8.78332412 Z M31.3970588,8.78332412 C31.2695996,8.79343721 31.1462454,8.83308679 31.0367647,8.89913294 L26.7518382,11.3697212 C26.3574216,11.5971325 26.2220372,12.1012237 26.4494485,12.4956403 C26.6768599,12.8900569 27.1809511,13.0254414 27.5753676,12.79803 L31.8602941,10.3274418 C32.2025782,10.1411992 32.3675004,9.74056585 32.2555288,9.36732724 C32.1435572,8.99408863 31.7853378,8.75039779 31.3970588,8.78332412 L31.3970588,8.78332412 Z M16.4705882,9.20795647 C11.4675198,9.20795647 7.41176471,13.09021 7.41176471,17.8550153 C7.41176471,22.5252547 11.7055268,25.2625796 12.2886029,28.9726624 L15.6470588,28.9726624 L15.6470588,19.6822212 C15.1554978,19.3972413 14.8235294,18.8758549 14.8235294,18.26678 C14.8235294,17.3571094 15.5609424,16.6197212 16.4705882,16.6197212 C17.3802341,16.6197212 18.1176471,17.3571094 18.1176471,18.26678 C18.1176471,18.8758549 17.7856786,19.3972413 17.2941176,19.6822212 L17.2941176,28.9726624 L20.6525735,28.9726624 C21.2356496,25.2625796 25.5294118,22.5252547 25.5294118,17.8550153 C25.5294118,13.09021 21.4736566,9.20795647 16.4705882,9.20795647 Z M1.15808824,17.4432506 C0.863827526,17.4569851 0.599253859,17.6266828 0.464052816,17.8884053 C0.328851773,18.1501278 0.343569324,18.4641022 0.502660216,18.7120298 C0.661751108,18.9599574 0.941038925,19.1041616 1.23529412,19.0903094 L4.11764706,19.0903094 C4.41463995,19.0945075 4.69088694,18.9384683 4.8406085,18.6819418 C4.99033006,18.4254153 4.99033006,18.1081447 4.8406085,17.8516182 C4.69088694,17.5950917 4.41463995,17.4390525 4.11764706,17.4432506 L1.23529412,17.4432506 C1.20957297,17.4420437 1.18380938,17.4420437 1.15808824,17.4432506 Z M28.7463235,17.4432506 C28.4520628,17.4569851 28.1874892,17.6266828 28.0522881,17.8884053 C27.9170871,18.1501278 27.9318046,18.4641022 28.0908955,18.7120298 C28.2499864,18.9599574 28.5292742,19.1041616 28.8235294,19.0903094 L31.7058824,19.0903094 C32.0028752,19.0945075 32.2791222,18.9384683 32.4288438,18.6819418 C32.5785654,18.4254153 32.5785654,18.1081447 32.4288438,17.8516182 C32.2791222,17.5950917 32.0028752,17.4390525 31.7058824,17.4432506 L28.8235294,17.4432506 C28.7978083,17.4420437 28.7720447,17.4420437 28.7463235,17.4432506 Z M5.72610294,23.6068535 C5.59864376,23.6169666 5.47528952,23.6566162 5.36580882,23.7226624 L1.08088235,26.1932506 C0.688816459,26.4217428 0.555140131,26.9241347 0.781806423,27.3172591 C1.00847271,27.7103834 1.51023746,27.8463949 1.90441176,27.6215594 L6.18933824,25.1509712 C6.53162232,24.9647286 6.69654451,24.5640953 6.58457292,24.1908567 C6.47260134,23.817618 6.1143819,23.5739272 5.72610294,23.6068535 L5.72610294,23.6068535 Z M27.1121324,23.6068535 C26.7435929,23.6235131 26.4310868,23.8832106 26.3472582,24.242476 C26.2634296,24.6017414 26.4287297,24.9729271 26.7518382,25.1509712 L31.0367647,27.6215594 C31.430939,27.8463949 31.9327038,27.7103834 32.15937,27.3172591 C32.3860363,26.9241347 32.25236,26.4217428 31.8602941,26.1932506 L27.5753676,23.7226624 C27.4357791,23.6391639 27.2745921,23.5988672 27.1121324,23.6068535 L27.1121324,23.6068535 Z M12.3529412,30.6197212 L12.3529412,33.9138388 C12.3529412,34.8263094 13.0875302,35.5608976 14,35.5608976 L18.9411765,35.5608976 C19.8536462,35.5608976 20.5882353,34.8263094 20.5882353,33.9138388 L20.5882353,30.6197212 L12.3529412,30.6197212 Z" transform="translate(18.53 17.145)" stroke="none" class="main-stroke"></path>
  </g></g><style>
          .main-fill {fill: #F5842F;}
          .main-stroke {stroke: #F5842F;}
          .secondary-fill {fill: ;}
          .secondary-stroke {stroke: ;}

          .main-fill--darken {fill: #ce5e0a;}
          .main-stroke--darken {stroke: #ce5e0a;}
          .secondary-fill--darken {fill: #000000;}
          .secondary-stroke--darken {stroke: #000000;}

          .main-fill--darkener {fill: #9d4808;}
          .main-stroke--darkener {stroke: #9d4808;}
          .secondary-fill--darkener {fill: #000000;}
          .secondary-stroke--darkener {stroke: #000000;}
        </style></svg>