<svg xmlns="http://www.w3.org/2000/svg" width="70" height="70" viewBox="0 0 70 70" style="width: 100%; height: 100%;"><desc>Made with illustrio</desc>
  
<g class="shifted" transform="matrix(1,0,0,1,1.5,1.5)"><g fill="none" fill-rule="evenodd" stroke="none" style="fill-opacity: 0.7;" class="secondary-fill">
    
    
  </g><g fill="none" transform="translate(23 20)" stroke="none" style="fill-opacity: 0.7;" class="secondary-fill">
      <path d="M8.9 14.3L6.8 14.3C6.5 14.3 6.3 14.4 6.3 14.7L6.3 16.8C6.3 17.1 6.5 17.2 6.8 17.2L8.8 17.2C9.1 17.2 9.1 17.1 9.1 16.8L9.1 14.9C9.1 14.5 9.2 14.3 8.9 14.3L8.9 14.3zM8.9 20L6.8 20C6.5 20 6.3 20.1 6.3 20.4L6.3 22.5C6.3 22.8 6.5 22.9 6.8 22.9L8.8 22.9C9.1 22.9 9.1 22.8 9.1 22.5L9.1 20.6C9.1 20.2 9.2 20 8.9 20L8.9 20zM8.9 9L7.5 10.7 6.8 10C6.5 9.7 6.1 9.8 5.8 10 5.5 10.3 5.5 10.8 5.8 11.1L7.1 12.4C7.2 12.5 7.4 12.8 7.6 12.8L7.6 12.8C7.8 12.8 8 12.5 8.1 12.4L10 9.9C10.2 9.6 10.2 9.1 9.9 8.9 9.6 8.7 9.1 8.7 8.9 9L8.9 9zM16.9 10L11.6 10C11.2 10 10.9 10.3 10.9 10.7 10.9 11.1 11.2 11.4 11.6 11.4L16.9 11.4C17.3 11.4 17.6 11.1 17.6 10.7 17.6 10.3 17.3 10 16.9 10L16.9 10zM16.9 21.4L11.6 21.4C11.2 21.4 10.9 21.7 10.9 22.1 10.9 22.5 11.2 22.8 11.6 22.8L16.9 22.8C17.3 22.8 17.6 22.5 17.6 22.1 17.6 21.7 17.3 21.4 16.9 21.4L16.9 21.4zM16.9 15.7L11.6 15.7C11.2 15.7 10.9 16 10.9 16.4 10.9 16.8 11.2 17.1 11.6 17.1L16.9 17.1C17.3 17.1 17.6 16.8 17.6 16.4 17.6 16 17.3 15.7 16.9 15.7L16.9 15.7z" fill="none" stroke="none" style="fill-opacity: 0.7;" class="secondary-fill"></path>
      <path d="M22.7,2.9 L16.3,2.9 L16.3,0.7 C16.3,0.3 16,0 15.6,0 L8.5,0 C8.1,0 7.8,0.3 7.8,0.7 L7.8,2.8 L1.3,2.8 C0.9,2.8 0.6,3.1 0.6,3.5 L0.6,29.2 C0.6,29.6 0.9,29.9 1.3,29.9 L22.7,29.9 C23.1,29.9 23.4,29.6 23.4,29.2 L23.4,3.6 C23.4,3.2 23.1,2.9 22.7,2.9 L22.7,2.9 Z M9.1,1.4 L14.8,1.4 L14.8,4.3 L9.1,4.3 L9.1,1.4 L9.1,1.4 Z M20.6,26.4 C20.6,26.8 20.3,27.1 19.9,27.1 L4.1,27.1 C3.7,27.1 3.4,26.8 3.4,26.4 L3.4,6.4 C3.4,6 3.7,5.7 4.1,5.7 L19.8,5.7 C20.2,5.7 20.5,6 20.5,6.4 L20.5,26.4 L20.6,26.4 Z" fill="none" stroke="none" style="fill-opacity: 0.7;" class="secondary-fill"></path>
    </g></g><g class="base"><g fill="none" fill-rule="evenodd" stroke="none" class="main-stroke">
    
    
  </g><g fill="none" transform="translate(23 20)" stroke="none" class="main-stroke">
      <path d="M8.9 14.3L6.8 14.3C6.5 14.3 6.3 14.4 6.3 14.7L6.3 16.8C6.3 17.1 6.5 17.2 6.8 17.2L8.8 17.2C9.1 17.2 9.1 17.1 9.1 16.8L9.1 14.9C9.1 14.5 9.2 14.3 8.9 14.3L8.9 14.3zM8.9 20L6.8 20C6.5 20 6.3 20.1 6.3 20.4L6.3 22.5C6.3 22.8 6.5 22.9 6.8 22.9L8.8 22.9C9.1 22.9 9.1 22.8 9.1 22.5L9.1 20.6C9.1 20.2 9.2 20 8.9 20L8.9 20zM8.9 9L7.5 10.7 6.8 10C6.5 9.7 6.1 9.8 5.8 10 5.5 10.3 5.5 10.8 5.8 11.1L7.1 12.4C7.2 12.5 7.4 12.8 7.6 12.8L7.6 12.8C7.8 12.8 8 12.5 8.1 12.4L10 9.9C10.2 9.6 10.2 9.1 9.9 8.9 9.6 8.7 9.1 8.7 8.9 9L8.9 9zM16.9 10L11.6 10C11.2 10 10.9 10.3 10.9 10.7 10.9 11.1 11.2 11.4 11.6 11.4L16.9 11.4C17.3 11.4 17.6 11.1 17.6 10.7 17.6 10.3 17.3 10 16.9 10L16.9 10zM16.9 21.4L11.6 21.4C11.2 21.4 10.9 21.7 10.9 22.1 10.9 22.5 11.2 22.8 11.6 22.8L16.9 22.8C17.3 22.8 17.6 22.5 17.6 22.1 17.6 21.7 17.3 21.4 16.9 21.4L16.9 21.4zM16.9 15.7L11.6 15.7C11.2 15.7 10.9 16 10.9 16.4 10.9 16.8 11.2 17.1 11.6 17.1L16.9 17.1C17.3 17.1 17.6 16.8 17.6 16.4 17.6 16 17.3 15.7 16.9 15.7L16.9 15.7z" fill="none" stroke="none" class="main-stroke"></path>
      <path d="M22.7,2.9 L16.3,2.9 L16.3,0.7 C16.3,0.3 16,0 15.6,0 L8.5,0 C8.1,0 7.8,0.3 7.8,0.7 L7.8,2.8 L1.3,2.8 C0.9,2.8 0.6,3.1 0.6,3.5 L0.6,29.2 C0.6,29.6 0.9,29.9 1.3,29.9 L22.7,29.9 C23.1,29.9 23.4,29.6 23.4,29.2 L23.4,3.6 C23.4,3.2 23.1,2.9 22.7,2.9 L22.7,2.9 Z M9.1,1.4 L14.8,1.4 L14.8,4.3 L9.1,4.3 L9.1,1.4 L9.1,1.4 Z M20.6,26.4 C20.6,26.8 20.3,27.1 19.9,27.1 L4.1,27.1 C3.7,27.1 3.4,26.8 3.4,26.4 L3.4,6.4 C3.4,6 3.7,5.7 4.1,5.7 L19.8,5.7 C20.2,5.7 20.5,6 20.5,6.4 L20.5,26.4 L20.6,26.4 Z" fill="none" stroke="none" class="main-stroke"></path>
    </g></g><style>
          .main-fill {fill: #F5842F;}
          .main-stroke {stroke: #F5842F;}
          .secondary-fill {fill: ;}
          .secondary-stroke {stroke: ;}

          .main-fill--darken {fill: #ce5e0a;}
          .main-stroke--darken {stroke: #ce5e0a;}
          .secondary-fill--darken {fill: #000000;}
          .secondary-stroke--darken {stroke: #000000;}

          .main-fill--darkener {fill: #9d4808;}
          .main-stroke--darkener {stroke: #9d4808;}
          .secondary-fill--darkener {fill: #000000;}
          .secondary-stroke--darkener {stroke: #000000;}
        </style></svg>